<?xml version="1.0" encoding="UTF-8"?>
<svg id="uuid-ad188d24-ed07-4569-8edf-369904c31a0b" xmlns="http://www.w3.org/2000/svg" version="1.1" viewBox="0 0 335.1 50.3">
  <!-- Generator: Adobe Illustrator 29.7.1, SVG Export Plug-In . SVG Version: 2.1.1 Build 8)  -->
  <defs>
    <style>
      .st0 {
        fill: #0000b6;
      }
    </style>
  </defs>
  <path class="st0" d="M4.7,4.8C6.8,3.3,8.5,1.2,10.8.1c13.7-.2,27.3,0,41,0-.3,2.8-3,4.1-4.9,5.8-2,1.5-3.8,3.5-6.1,4.7-3.3.3-6.7,0-10,0,0,10,0,20,0,30-3.3,2.8-6.6,5.6-9.9,8.3-.9,1-2.2,1.1-3.5,1.4,0-10.8,0-21.5,0-32.3,3-2.5,6-4.9,9-7.4-8.8,0-17.7,0-26.5,0,0-2.8,2.9-4.2,4.7-5.9Z"/>
  <path class="st0" d="M62.8,10.4c7.5,0,15,0,22.4,0,0,1.9,0,3.8,0,5.7-2.8,0-5.5,0-8.2,0,0,8.2,0,16.4,0,24.6-2.1,0-4.1,0-6.2,0,0-8.2,0-16.4,0-24.6-2.7,0-5.5,0-8.2,0,0-1.9,0-3.8.1-5.7Z"/>
  <path class="st0" d="M88.8,10.4c5.7.3,11.6-.7,17.1.9,6.1,1.8,7.7,10.6,3.2,14.8-1.7,1.8-4.2,2.4-6.5,3.2,3,3.7,5.7,7.6,8.7,11.4-2.4,0-4.8,0-7.1,0-3.2-3.9-5.7-8.4-9.3-12,0,4,0,8,0,12h-6.1c0-10.1,0-20.2,0-30.3ZM94.9,15.9c0,3.1,0,6.2,0,9.3,2.6,0,5.3.3,7.8-.6,3.4-1.2,3.8-7.1.2-8.3-2.6-.7-5.3-.4-8-.4Z"/>
  <path class="st0" d="M125.5,10.3c1.3.3,3.3,0,3.6,1.8,4,9.6,8,19.1,12.1,28.7-2.2,0-4.4,0-6.5,0-.6-1.7-1.3-3.4-1.9-5.1-3.8,0-7.6,0-11.4,0-.7,1.7-1.4,3.4-2.1,5.1-2.1,0-4.2,0-6.3,0,4.2-10.1,8.4-20.3,12.7-30.5ZM123,31h8c-1.3-3.5-2.6-7-4.1-10.5-1.3,3.5-2.6,7-3.9,10.5Z"/>
  <path class="st0" d="M143.2,10.4c2.1,0,4.3-.2,6.4.4,3.2,5.7,5.9,11.8,9,17.5,3-5.9,6.1-11.8,9.1-17.7,2.1,0,4.3-.2,6.4-.2,0,10.1,0,20.2,0,30.3h-6.1c0-5.9,0-11.7,0-17.6-3.2,5.2-6.1,10.7-9.3,15.9-3.6-4.9-5.9-10.7-9.1-15.9-.1,5.9,0,11.7,0,17.6-2.1,0-4.1,0-6.2,0,0-10.1,0-20.2,0-30.3h0Z"/>
  <path class="st0" d="M186.9,11.1c6.3-2.4,14.3-.7,18.2,5,4.8,7,3.5,18.1-4,22.8-7.2,4.6-18.3,2.3-21.9-5.8-3.8-7.8-.8-19,7.8-22ZM190.1,16.2c-8.2,2.8-7.9,17,.7,19.1,5.8,1.6,11-4,10.5-9.6.6-5.9-5.3-11.7-11.2-9.5Z"/>
  <path class="st0" d="M211.4,10.3c1.4.3,3.2,0,4.1,1.4,5.1,5.6,10.2,11.2,15.3,16.8,0-6,0-12,0-18,2,0,4.1,0,6.1,0,0,10.1,0,20.2,0,30.3-.8,0-2.3,0-3.1,0-5.4-6-10.8-12-16.3-17.9,0,5.9,0,11.9,0,17.9h-6.1c0-10.1,0-20.3,0-30.5h0Z"/>
  <path class="st0" d="M241,10.5c7.5,0,15,0,22.4,0,0,1.9,0,3.8.1,5.7-2.7,0-5.5,0-8.2,0,0,8.2,0,16.4,0,24.6-2.1,0-4.1,0-6.2,0,0-8.2,0-16.4,0-24.6-2.8,0-5.5,0-8.3,0,0-1.9,0-3.8,0-5.7Z"/>
  <path class="st0" d="M267.4,10.5c2,0,4,0,6.1,0,.1,10.1,0,20.2,0,30.3h-6.1c0-10.1,0-20.2,0-30.3h0Z"/>
  <path class="st0" d="M279.3,10.5c.9,0,2.6,0,3.5,0,5.4,5.9,10.5,12.1,15.9,18,0-6,0-12,0-18,2,0,4,0,6.1,0,0,10.1,0,20.2,0,30.2-.9,0-2.7,0-3.6,0-5.4-5.9-10.5-12-15.8-18,0,6,0,11.9,0,17.9h-6.1c0-10.1,0-20.2,0-30.3Z"/>
  <path class="st0" d="M319.2,10.6c1.1,0,2.1,0,3.2,0,4.1,10.1,8.4,20.1,12.6,30.1h-6.5c-.6-1.7-1.3-3.4-1.9-5.1-3.9,0-7.7,0-11.5,0-.7,1.7-1.3,3.4-2,5.1-2.1,0-4.2,0-6.4,0,4.2-10,8.4-20.1,12.5-30.1h0ZM316.8,31c2.7,0,5.4,0,8,0-1.3-3.5-2.6-7.1-4.1-10.6-1.3,3.5-2.6,7.1-4,10.5h0Z"/>
</svg>